# xmcd CD database file
#
# Track frame offsets:
#	150
#	25680
#	47207
#	66405
#	89012
#	111742
#	157220
#	174495
#	227845
#	262475
#
# Disc length: 3711 seconds
#
# Revision: 0
# Processed by: cddbd v1.5PL3 Copyright (c) Steve Scherf et al.
# Submitted via: CDex 1.50beta8a
#
DISCID=9b0e7d0a
DTITLE=Itabashi Fumio - The Mix Dynamite 游
DYEAR=1995
DGENRE=Jazz
TTITLE0=ダダダッ
TTITLE1=雷門
TTITLE2=ゴリゴリ'95
TTITLE3=YOU!
TTITLE4=だそがれ
TTITLE5=月の輪
TTITLE6=かんぴょう
TTITLE7=21
TTITLE8=ゴスペル'94
TTITLE9=もう一度この街に
EXTD=YEAR: 1995
EXTT0=
EXTT1=
EXTT2=
EXTT3=
EXTT4=
EXTT5=
EXTT6=
EXTT7=
EXTT8=
EXTT9=
PLAYORDER=
